# xmcd
#
# Track frame offsets: 
#        150
#        14945
#        35612
#        50405
#        65942
#        83955
#        97005
#        108792
#        124672
#        137570
#        154405
#        170040
#
# Disc length: 2571 seconds
#
# Revision: 3
# Processed by: cddbd v1.5.2PL0 Copyright (c) Steve Scherf et al.
# Submitted via: ExactAudioCopy v0.99pb5
#
DISCID=af0a090c
DTITLE=Greyhounds - Alte Freunde
DYEAR=1996
DGENRE=Country
TTITLE0=Dank Gott für das Radio
TTITLE1=Der Steeler
TTITLE2=Marlboro Mann
TTITLE3=Lieber Gott
TTITLE4=Alte Freunde
TTITLE5=Ich wein' Dir keine Träne nach
TTITLE6=Jetzt bist Du dran
TTITLE7=Rock'n'Roll Feeling
TTITLE8=Mein letzter Versuch
TTITLE9=Der Essfan
TTITLE10=Wenn die Lichter angeh'n am Highway
TTITLE11=Good Old Germany
EXTD=
EXTT0=
EXTT1=
EXTT2=
EXTT3=
EXTT4=
EXTT5=
EXTT6=
EXTT7=
EXTT8=
EXTT9=
EXTT10=
EXTT11=
PLAYORDER=
